<svg width="506" height="505" xmlns="http://www.w3.org/2000/svg" xmlns:xlink="http://www.w3.org/1999/xlink" overflow="hidden"><defs><clipPath id="clip0"><rect x="320" y="644" width="506" height="505"/></clipPath></defs><g clip-path="url(#clip0)" transform="translate(-320 -644)"><path d="M123.094 199.238C120.135 195.096 118.951 192.531 119.543 191.545 119.938 190.559 122.699 190.164 127.236 190.559 131.773 190.953 135.521 191.545 138.678 192.334 141.637 193.123 144.201 194.307 146.174 195.688 148.146 197.068 149.725 198.646 150.711 200.816 151.895 202.789 152.684 205.354 153.473 208.115 154.854 213.639 154.459 217.387 152.486 219.359 150.316 221.332 147.357 220.938 143.412 218.176 139.27 215.414 135.719 212.652 132.562 209.891 129.209 207.326 126.053 203.578 123.094 199.238ZM80.2871 375.002C89.7559 370.859 98.041 366.717 105.143 362.377 112.047 358.234 118.162 353.697 123.488 348.963 128.617 344.426 133.352 339.297 137.297 333.773 141.242 328.447 144.793 322.332 147.949 315.625 150.514 317.992 152.881 320.359 155.445 322.529 157.812 324.699 160.377 326.869 162.941 329.236 165.506 331.604 168.465 333.971 171.424 336.732 174.383 339.494 177.934 342.256 181.879 345.609 183.26 346.596 184.641 347.385 186.021 347.582 187.402 347.779 189.375 347.582 192.137 346.398 194.701 345.412 198.055 343.637 202.197 340.875 206.34 338.311 211.469 334.76 217.781 330.223 220.938 328.053 222.516 326.277 222.318 324.896 222.121 323.516 220.346 322.924 216.992 323.121 210.877 323.318 205.354 323.318 200.619 322.924 195.688 322.529 190.756 321.74 186.021 320.162 181.287 318.584 176.355 316.414 171.227 313.455 166.098 310.496 160.18 306.354 153.275 301.225 155.248 293.531 156.826 285.443 158.01 276.764 158.602 271.832 159.193 268.281 159.588 265.717 159.982 263.35 160.574 260.982 161.363 259.207 161.955 257.629 162.152 256.445 162.35 255.459 162.547 254.473 162.152 253.486 161.561 252.303 160.771 251.316 159.588 250.133 157.812 248.949 156.037 247.766 153.473 246.188 150.119 244.412 154.854 242.637 160.18 241.059 165.703 239.283 171.029 237.508 176.947 235.732 183.062 233.957 188.98 232.182 191.939 230.209 192.137 227.842 192.334 225.475 190.361 223.305 185.824 220.938 182.865 219.359 180.104 218.768 177.342 219.162 174.58 219.557 171.029 220.938 166.689 223.502 165.506 224.291 163.139 225.277 159.982 226.658 156.629 228.039 152.881 229.617 148.146 231.59 143.412 233.562 138.283 235.535 132.76 237.705 127.039 239.875 121.318 242.045 115.598 244.018 109.877 246.188 104.354 247.963 99.4219 249.541 94.293 251.119 90.3477 252.303 87.3887 252.697 79.8926 254.275 75.9473 255.854 75.75 257.432 75.75 259.01 78.709 260.588 84.4297 262.166 86.7969 262.758 88.9668 263.35 90.5449 263.35 92.123 263.547 93.8984 263.547 95.4766 263.35 97.0547 263.152 98.6328 262.758 100.211 262.363 101.789 261.771 103.564 260.982 105.734 260.193 108.891 258.615 113.428 256.84 119.346 254.67 125.066 252.697 132.365 249.936 141.439 246.779 143.215 252.105 144.201 258.615 144.201 266.111 144.201 273.607 143.412 282.09 141.439 291.756 138.875 289.586 136.113 287.219 133.154 284.654 130.195 282.09 127.434 279.525 124.672 276.961 121.516 274.002 118.359 272.029 115.4 271.043 112.244 270.057 108.693 270.057 104.551 271.043 98.041 272.818 94.6875 274.791 94.8848 277.158 94.8848 279.525 97.4492 280.709 102.381 280.906 104.156 281.104 105.932 281.498 107.707 282.09 109.482 282.682 111.455 283.865 114.02 285.641 116.584 287.416 119.74 289.98 123.291 293.137 126.842 296.293 131.576 300.436 137.1 305.564 134.732 311.285 131.971 316.611 129.012 321.346 126.053 326.277 122.305 331.209 118.162 335.746 113.822 340.48 108.891 345.215 102.973 349.949 97.0547 354.881 89.9531 360.01 81.668 365.336 73.1855 370.859 68.8457 374.607 68.8457 376.383 69.043 378.947 72.9883 378.158 80.2871 375.002ZM494.15 161.363 494.15 487.443 274.002 415.639 20.7129 499.871 20.7129 150.119 79.6953 130.393 79.6953 20.5156 239.875 77.1309 456.275 5.12891 456.275 149.33 494.15 161.363ZM245.004 99.8164 43.9902 166.887 43.9902 467.125 245.004 400.252 245.004 99.8164 245.004 99.8164ZM432.801 141.834 432.801 37.4805 272.424 90.7422 432.801 141.834ZM447.793 398.279 387.627 181.484 347.188 168.859 286.232 347.977 323.516 359.615 334.957 322.727 397.885 342.453 409.129 386.443 447.793 398.279ZM344.82 291.361 388.613 304.973 367.111 220.346 344.82 291.361Z" fill="#7F6000" transform="matrix(1.00198 0 0 1 320 644)"/></g></svg>